<svg width="23" height="27" viewBox="0 0 23 27" fill="none" xmlns="http://www.w3.org/2000/svg">
<path fill-rule="evenodd" clip-rule="evenodd" d="M0.313477 3.86818L1.4112 0.261364C1.46348 0.104545 1.62029 0 1.77711 0H21.2226C21.3794 0 21.5362 0.104545 21.5885 0.261364L22.6862 3.86818C22.6339 3.86818 22.6339 3.86818 22.6339 3.86818H0.365749C0.365749 3.86818 0.365749 3.86818 0.313477 3.86818ZM19.9157 2.3H3.08393C2.87484 2.3 2.71802 2.14318 2.71802 1.93409C2.71802 1.725 2.87484 1.56818 3.08393 1.56818H19.9157C20.1248 1.56818 20.2817 1.725 20.2817 1.93409C20.2817 2.14318 20.1248 2.3 19.9157 2.3Z" fill="#FFBB38"/>
<path fill-rule="evenodd" clip-rule="evenodd" d="M2.61364 9.9837C1.15 9.9837 0 8.8337 0 7.42234V4.96552C0 4.75643 0.156818 4.59961 0.365909 4.59961H4.80909H9.25227H13.7477H18.1909H22.6341C22.8432 4.59961 23 4.75643 23 4.96552V7.42234C23 8.8337 21.85 9.9837 20.3864 9.9837C19.4455 9.9837 18.6091 9.51325 18.1909 8.72915C17.7205 9.51325 16.8841 9.9837 15.9432 9.9837C15.0023 9.9837 14.1659 9.51325 13.7477 8.72915C13.2773 9.51325 12.4409 9.9837 11.5 9.9837C10.5591 9.9837 9.72273 9.51325 9.25227 8.72915C8.83409 9.51325 7.99773 9.9837 7.05682 9.9837C6.11591 9.9837 5.27955 9.51325 4.80909 8.72915C4.39091 9.51325 3.55455 9.9837 2.61364 9.9837Z" fill="#FFBB38"/>
<path fill-rule="evenodd" clip-rule="evenodd" d="M21.7978 26.7636H1.20233C0.993244 26.7636 0.836426 26.6067 0.836426 26.3976C0.836426 26.1886 0.993244 26.0317 1.20233 26.0317H21.7978C22.0069 26.0317 22.1637 26.1886 22.1637 26.3976C22.1637 26.6067 22.0069 26.7636 21.7978 26.7636Z" fill="#FFBB38"/>
<path fill-rule="evenodd" clip-rule="evenodd" d="M8.10188 17.0407H2.09052C1.88143 17.0407 1.72461 16.8316 1.72461 16.6748V15.3679H8.46779V16.6748C8.46779 16.8316 8.31097 17.0407 8.10188 17.0407ZM1.72461 14.6361V13.3816H8.46779V14.6361H1.72461ZM1.72461 12.6498V11.3952C1.72461 11.1861 1.88143 11.0293 2.09052 11.0293H8.10188C8.31097 11.0293 8.46779 11.1861 8.46779 11.3952V12.6498H1.72461Z" fill="#FFBB38"/>
<path fill-rule="evenodd" clip-rule="evenodd" d="M20.9087 26.7633H2.09052C1.88143 26.7633 1.72461 26.6065 1.72461 26.3974V9.56562C1.72461 9.35653 1.88143 9.19971 2.09052 9.19971C2.29961 9.19971 2.45643 9.35653 2.45643 9.56562V26.0315H20.5428V9.56562C20.5428 9.35653 20.6996 9.19971 20.9087 9.19971C21.1178 9.19971 21.2746 9.35653 21.2746 9.56562V26.3974C21.2746 26.6065 21.1178 26.7633 20.9087 26.7633Z" fill="#FFBB38"/>
<path fill-rule="evenodd" clip-rule="evenodd" d="M7.1087 26.7638H2.09052C1.88143 26.7638 1.72461 26.6069 1.72461 26.3979V19.2888C1.72461 19.1319 1.88143 18.9229 2.09052 18.9229H7.1087C7.31779 18.9229 7.47461 19.1319 7.47461 19.2888V26.3979C7.47461 26.6069 7.31779 26.7638 7.1087 26.7638ZM6.16779 23.7842C5.9587 23.7842 5.80188 23.6274 5.80188 23.4183V22.3206C5.80188 22.1115 5.9587 21.9547 6.16779 21.9547C6.37688 21.9547 6.5337 22.1115 6.5337 22.3206V23.4183C6.5337 23.6274 6.37688 23.7842 6.16779 23.7842Z" fill="#FFBB38"/>
<path fill-rule="evenodd" clip-rule="evenodd" d="M11.918 26.0321H17.093V19.6026C16.9362 19.6026 16.7271 19.5503 16.5702 19.5503H16.4657L15.0021 22.7912C14.8975 22.948 14.793 23.0526 14.6362 23.0526H14.5839C14.4793 23.0526 14.3225 22.948 14.2702 22.8435L12.5452 19.5503H12.4407C12.2839 19.5503 12.0748 19.6026 11.918 19.6026V26.0321Z" fill="#FFBB38"/>
<path fill-rule="evenodd" clip-rule="evenodd" d="M19.4451 26.0315V22.0065C19.4451 21.1178 18.8701 20.2815 17.9292 19.8633V26.0315H19.4451Z" fill="#FFBB38"/>
<path fill-rule="evenodd" clip-rule="evenodd" d="M11.0818 26.0315V19.8633C10.1932 20.2815 9.56592 21.1178 9.56592 22.0065V26.0315H11.0818Z" fill="#FFBB38"/>
<path fill-rule="evenodd" clip-rule="evenodd" d="M14.5842 21.6931L15.8388 18.9226V18.4521C15.4729 18.609 15.0547 18.7135 14.5842 18.7135H14.4274C13.9569 18.7135 13.591 18.609 13.1729 18.4521V19.0794L14.5842 21.6931Z" fill="#FFBB38"/>
<path fill-rule="evenodd" clip-rule="evenodd" d="M14.5843 17.8772C15.8911 17.8772 16.8843 16.884 16.8843 15.5772V13.5385C15.2638 13.434 13.9047 13.6953 13.0161 14.3226C12.4411 14.7408 12.1797 15.2112 12.1274 15.3681V15.5772C12.1274 16.2567 12.3888 16.884 12.8593 17.3022L13.1729 17.5112C13.4865 17.7726 13.957 17.8772 14.4274 17.8772H14.5843Z" fill="#FFBB38"/>
<path fill-rule="evenodd" clip-rule="evenodd" d="M12.1274 14.009C12.8593 13.3295 14.2706 12.5977 16.7797 12.7022C16.5184 12.0749 15.8911 11.6045 15.1593 11.6045H13.8524C12.9115 11.6045 12.1274 12.3886 12.1274 13.3818V14.009Z" fill="#FFBB38"/>
</svg>
